<?xml version="1.0" encoding="UTF-8"?>
<svg xmlns="http://www.w3.org/2000/svg" width="16" height="16" viewBox="0 0 16 16">
  <path fill="#2e3436" d="M2 2h5v5H2zm1.5 1.5v2h2v-2zM9 9h5v5H9zm1.5 1.5v2h2v-2z"/>
  <path fill="#2e3436" d="M8.2 3.3h2.4c1.2 0 2.1.9 2.1 2.1v1.2H14V5.4C14 3.5 12.5 2 10.6 2H8.2zM2 9.4V8.2h1.3v1.2c0 1.2.9 2.1 2.1 2.1h2.4V13H5.4C3.5 13 2 11.5 2 9.4z"/>
  <path fill="#2e3436" d="m6.2 9.4 2.3 2.3L6.2 14 5.1 13l1.3-1.3-1.3-1.2zm3.6-7.4 1.1 1.1-1.3 1.3 1.3 1.2-1.1 1.1-2.3-2.3z"/>
</svg>
